<svg width="104" height="40" viewBox="0 0 104 40" fill="none" xmlns="http://www.w3.org/2000/svg">
    <path d="M61.368 14.397c.165-.165.204-.541.647.19.095.161.239.358.312.323.053.007.134-.127.166-.173.39-.565.881-.867 1.436-1.113a.112.112 0 0 1 .05-.01c.674.066 1.247.298 2.023.617.067.029.151-.006.172-.077.33-1.124-.22-2.136-.203-2.284.02-.147.095-.073.372.204.608.608 1.553.65 2.105.506.284-.073.653-.256.797-.446.06-.077.01-.186-.088-.204-1.658-.256-1.753-1.967-2.448-3.12-.04-.066-.074-.168-.05-.19l.53.271s2.355.503 2.457.52c.235.035.347-.228.347-.228.018-.07.166-.64.151-1.142-.007-.228-.256-.369-.368-.253a.891.891 0 0 1-.134.127.253.253 0 0 1-.207.031 9.602 9.602 0 0 1-1.458-.488l-.847-1.353c-.056-.172.084-.242.14-.288.661-.569 1.248-.977 3.556-2.16.218-.113-.218-1.546-.44-2.499-.073-.33-.343-.418-.466-.386-2.951.766-5.572 2.154-6.16 1.553-.01-.01 0 0-.01-.007L60.782.08c-.246-.186-.5-.028-.46.28.147 1.157.284 1.828.382 2.53.021.162-.007.25-.12.25-.67 0-1.313.481-1.707 1.173-.551.967-1.054 1.848-1.953 2.298-.063.032-.095.109-.06.172.193.366.527.576.857.689.366.123.542.05.812.172a.125.125 0 0 1 .067.165c-.021.06-.064.113-.099.19-.762 1.367.11 3.102-1.166 4.18a.116.116 0 0 0 .056.204c1.49.24 1.954-.84 2.136-.635-.456 1.384-.232 1.574-.52 3.337-.063.394-.344.903-.098.83 1.974-.577 2.333-1.374 2.473-1.515l-.014-.003zM65.152 3.62c.425 0 .734.31.734.742s-.305.744-.734.744c-.369 0-.674-.309-.674-.744 0-.436.305-.742.674-.742zm6.728.376a2.041 2.041 0 0 1-.186-.28h.007c.819 0 1.574-.317 2.308-.623h.004c.93-.442 1.83-.657 2.754-.657 1.03 0 2.062.253 3.46.843h.004c.552.183 1.444.25 1.497.25.148.021.299.05.446.08.25.05.481.092.7.103-.018.056-.053.098-.096.15-.06.082-.14.18-.14.327v.043l.031.02c.275.197.584.222.854.222.12 0 .243-.007.362-.01.12-.008.246-.015.369-.015.545 0 1.09-.144 1.62-.288.52-.14 1.054-.284 1.577-.284.443 0 .836.105 1.202.316.19.098.442.38.499.594-.865.01-1.469.629-2.06 1.233-.484.495-.983 1.012-1.626 1.173h-.01l-.008.007c-.895.447-1.82.66-2.824.66-.752 0-1.56-.119-2.477-.361l-.098-.028v.102c0 .197 0 .372.07.604a2.976 2.976 0 0 0-.99-.165c-.514 0-1.023.112-1.56.232l-.12.024c-.608.134-1.209.257-1.89.257a5.62 5.62 0 0 1-1.083-.106c-1.113-.158-1.78-.576-2.22-.85-.242-.15-.415-.26-.566-.26-1.071 0-2.16-.12-2.877-.998 1.12-1.043 2.308-1.342 3.32-1.496l.05-.007.017-.046c.074-.225-.14-.516-.327-.773l.007.007z" fill="#FAB70C"/>
    <path d="M102.626 32.037c-.837-.966-1.019-1.581-.728-2.568.134-.45.436-.584.475-.742.01-.052-.039-.098-.095-.087-.524.087-.728-.433-.657-.654.052-.323.116-.59.393-1.061.06-.102.014-.172-.105-.183-.496-.049-.682.323-.731-.035-.042-.313.127-.65.429-1.135.095-.154-.422-.228-.513-.235-.197-.014-.411-.225-.411-.323.003-.348.235-.387.133-.51-.165-.2-1.293-.681-2.47-2.175-.274-.474-.358-1.085-.58-1.612-.857-2.164-1.52-4.339-3.049-6.198-.365-.432-.488-.495-.973-.867-.158-.123-.102-.253.305-.72.647-.742 1.244-1.357 1.156-3.054-.102-1.999-1.823-3.362-3.362-3.362-1.81 0-2.955.931-3.415 1.75-.52.934-.811 1.946-1.184 2.863-.183.45-.977 2.396-1.925 2.762-.257.168-1.061.207-1.564-.362-.242-.31-.533-.808-.35-1.237h.055c.183.123.274.453.5.622.245.186.667.19.906.06.33-.183.418-.552.418-.924 0-.454-.19-.738-.496-1.009-.34-.295-1.029-.302-1.447-.126-.885.376-.889 1.328-.91 1.697.06.622.372 1.521 1.191 1.967.172.091-.443.805-1.339.907-.277.035-.46 0-.727-.18-.218-.182-.358-.284-.467-.502-.07-.144-.429.19-.53.657-.043.193-.384.158-.675-.014-.344-.204-.475-.653-.566-.668-.091-.014-.344.281-.446.538-.158.393-.358.59-.622.46a1.149 1.149 0 0 1-.457-.45c-.133-.235-.193-.48-.288-.618-.02-.038-.042-.063-.06-.07-.108-.088-.488.299-.604.436-.15.168-.442.435-.79.4-.4-.042-.429-.681-.76-1.353-.017-.087-.14-.137-.21-.084-.622.45-.826.58-1.184.72-.404.158-.457-.175-.457-.175-.077-.566-.379-1.307-.67-1.367-.282-.01-.82.826-1.54 1.012-.242.063-.249-.394-.249-.397-.031-.45-.383-1.152-.752-1.191-.197-.021-.14.407-1.36.941-.537.236-1.313.204-1.767.074-.095.576-.383 1.7-.593 1.743 0 0-1.838-.703-2.33-.64-.629.303-1.662 1.61-1.662 1.61-.66.031-1.078-.893-1.264-.693-.24.257-.935 3.103-.584 4.958.91 4.862 2.523 8.453 3.44 14.007.34 2.07-1.76 3.443-2.68 5.12 0 0-.124.217.164.217.872.007 1.63.046 2.635.003.275-.01.686-.312.763-.656.235-1.03.436-2.263.8-3.314.127-.488.89-1.254 1.923-1.918.056-.035-.594-.414-.394-.836.095-.197.229-.327.373-.495.14-.166.284-.37.397-.714-.872-.267-.506-.829-.506-.829.06-.15.284-.428.688-.973-.488-.436-.615-.232-.766-.429-.165-.217-.08-.551.3-1.018.255-.317.835-.96.315-.977-.688-.025-1.236-.387-1.138-1.167l-.007-1.567c0-.172.183-.063.183-.063.783.397 1.63.573 2.392.696 0 0 .102.018.091.155-.052.723.236 2.083.405 2.82.154.675.534 1.73.414 2.857-.084.79-.678 1.065-1.082 1.433-.256.232-.973.538-.906.858 0 0 .02.112.179.235 0 0 1.37 1.265 1.94 1.662.277.197.635-1.585.955-2.242.14-.288.446-.558.6-.64.468-.241.717-.86.717-.86l.007-.095c-.393.01-.38-.263-.284-.383.094-.12.34-.302.537-.46.468-.38.657-.804.657-.804l-.007-.057c-.513.081-.551-.26-.54-.351.01-.095.073-.225.301-.418.183-.151.689-.404.844-.998.017-.056-.506.172-.956-.428-.264-.352.014-1.297.204-1.733.15-.344.196-.421.376-.407.576.042 1.134-.091 1.862-.21 0 0 .53-.113.435.372-.358 1.567-.857 3.407-1.106 5.024 0 0-.05.288-.166.421-.523.604-1.071.935-1.658 1.297-.428.26-.84.393-1.043.832 0 0-.102.232.08.383l2.073 1.743c.106.091.172-.014.172-.014.422-.534.809-1.328 1.055-1.954.158-.4.08-.629.32-.878 0 0 .196-.158.48-.25.341-.105.408-.15.626-.403.165-.187.095-.088-.134-.513-.084-.162.359-.324.359-.324.13-.066.25-.08.386-.137.137-.056.292-.144.489-.355-.489 0-.468-.252-.317-.375.429-.352.92-.19 1.406-.868v-.035c-.102 0-.352-.088-.425-.24-.07-.196.453-.607.983-.78.457-.143.429-.495.429-.495-.278-.007-.675-1.106-.559-1.422-.094-.696 1.244-.879 1.732-.942 0 0 .162.83.348 1.451.471 1.57 1.915 3.517 1.915 3.517.077.102.25.263.067.506l-2.266 2.768c-.113.134-.134.373.06.373l3.291-.123c.232-.028.422-.158.443-.306.088-.643-.281-1.929.253-2.818.21-.355.323-.615.474-1.019 0 0-.657.113-.179-.484a2.32 2.32 0 0 0 .411-.763s-.277-.168-.513-.397c-.095-.091.042-.147.042-.147.123-.113.215-.222.285-.359.07-.137.12-.305.154-.53-.74.014-.899-.334-.962-.548-.039-.134.028-.868.18-1.15.164-.305.522-.8.944-1.236.172-.161.376-.246.429-.049.14.51.544 2.336 1.124 2.835 0 0 1.037.991 1.718 1.852.386.485.984 1.103.86 1.781l-.098.162-1.932 2.92s-.116.168-.035.28a.244.244 0 0 0 .256.099l3.152-.784s.102-.017.151-.077c.032-.039.032-.105.032-.105l-.127-2.137c-.01-.358.64-.86.787-1.057.028-.039.018-.074-.021-.099-.148-.09-.281-.428-.18-.523.433-.404.65-.812.514-.784-.243.046-.541.036-.63-.19-.045-.108.071-.178.071-.178.34-.288.404-.506.404-.633a.257.257 0 0 0-.028-.126s-1.17-.113-1.743-.963c-.19-.284-.133-1.922-.13-2.378 0 0-.003-.162.123-.127 1.768 1.135 3.268 1.525 5.643 1.96 0 0 .25-.049.808.939.98 1.728 1.946 3.31 3 5.01.246.397.418.766.503 1.106-.552.991-1.574 1.936-2.358 2.874-.302.366-.102.464.162.422l3.211-.506s.197-.021.249-.25c.173-.769.022-2.083 1.069-3.017-.246-.313-.45-.303-.798-.7l.011.004zM91.629 12.303c-1.25.07-1.592.007-1.592.007-.618.843-1.043 1.159-1.605 1.514-.636.397-1.43.755-2.098.755-.074-.003-.06-.067-.017-.105.049-.05.08-.078.08-.078 1.399-1.486 2.182-3.537 2.857-4.672.414-.696.734-1.455 1.792-1.746 1.49-.415 2.82.85 2.747 2.27-.06 1.17-.9 1.988-2.164 2.058v-.003z" fill="url(#jytj23f4wa)"/>
    <path d="M18.074 23.71H4.572c.63 2.664 2.864 4.445 6.236 4.445 2.175 0 3.879-.689 5.256-2.101l2.431 2.793c-1.742 2.066-4.462 3.155-7.796 3.155C4.14 31.998-.086 27.74.001 21.884c.081-5.38 4.518-9.67 9.9-9.718 5.713-.05 9.898 4.033 9.898 9.851 0 1.451-.545 1.694-1.725 1.694zM4.526 20.314H15.44c-.397-2.554-2.456-4.521-5.428-4.521s-5 1.872-5.485 4.521zm37.456.337v11.095H37.45V21.23c0-3.447-1.704-5.112-4.606-5.112-3.225 0-5.404 1.957-5.404 5.836v9.788h-4.532V12.38h1.05c2.098 0 3.265 1.12 3.265 2.502 1.486-1.778 3.843-2.72 6.671-2.72 4.641 0 8.084 2.646 8.084 8.485l.004.003zm3.784-14.042c0-1.448 1.173-2.583 2.754-2.583s2.755 1.068 2.755 2.48c0 1.515-1.139 2.688-2.755 2.688-1.616 0-2.754-1.138-2.754-2.582v-.003zm.47 5.776h.928c2.245 0 3.608.832 3.608 2.392v16.966H46.24V12.38l-.003.004z" fill="url(#n1uq6t5dbb)"/>
    <defs>
        <linearGradient id="jytj23f4wa" x1=".002" y1="14.491" x2="101.466" y2="37.321" gradientUnits="userSpaceOnUse">
            <stop offset=".2" stop-color="#FAB70C"/>
            <stop offset=".8" stop-color="#FFCC07"/>
        </linearGradient>
        <linearGradient id="n1uq6t5dbb" x1=".001" y1="-.141" x2="1.906" y2="48.346" gradientUnits="userSpaceOnUse">
            <stop offset=".25" stop-color="#FAB70C"/>
            <stop offset=".75" stop-color="#FFCC07"/>
        </linearGradient>
    </defs>
</svg>
